<?xml version="1.0" encoding="UTF-8"?>
<!--Generator: Apple Native CoreSVG 175.5-->
<!DOCTYPE svg
PUBLIC "-//W3C//DTD SVG 1.1//EN"
       "http://www.w3.org/Graphics/SVG/1.1/DTD/svg11.dtd">
<svg version="1.1" xmlns="http://www.w3.org/2000/svg" xmlns:xlink="http://www.w3.org/1999/xlink" width="19.5919" height="19.5986">
 <g>
  <rect height="19.5986" opacity="0" width="19.5919" x="0" y="0"/>
  <path d="M9.79443 19.5986C15.1649 19.5986 19.5919 15.1717 19.5919 9.8042C19.5919 4.44346 15.1582 0.00976562 9.7877 0.00976562C4.42695 0.00976562 0 4.44346 0 9.8042C0 15.1717 4.43369 19.5986 9.79443 19.5986ZM5.43545 10.2602C5.43545 7.85 7.39102 5.96787 9.66572 5.96787C9.84746 5.96787 10.0366 5.98975 10.1904 6.00859L9.17549 4.98321C9.08018 4.87813 9.02627 4.73867 9.02627 4.60225C9.02627 4.30752 9.24522 4.08184 9.54668 4.08184C9.69219 4.08184 9.83467 4.15088 9.92998 4.2627L11.909 6.28311C12.1101 6.50371 12.1145 6.86445 11.909 7.06924L9.90137 9.10713C9.81514 9.19033 9.68242 9.26309 9.54971 9.26309C9.25801 9.26309 9.03233 9.03135 9.03233 8.74873C9.03233 8.59717 9.09229 8.46143 9.20342 8.35029L10.4706 7.08985C10.2821 7.04912 10.0455 7.02725 9.79443 7.02725C7.97881 7.02725 6.53526 8.47451 6.53526 10.2871C6.53526 12.1125 7.97881 13.5628 9.79443 13.5628C11.607 13.5628 13.0506 12.1095 13.0506 10.2871C13.0506 9.98799 13.3002 9.73906 13.6084 9.73906C13.8947 9.73906 14.1504 9.98799 14.1504 10.2871C14.1504 12.707 12.2241 14.6559 9.79443 14.6559C7.3708 14.6559 5.43545 12.707 5.43545 10.2602Z" fill="#ffffff" fill-opacity="0.85"/>
 </g>
</svg>
