<?xml version="1.0" encoding="UTF-8"?>
<!--Generator: Apple Native CoreSVG 175.5-->
<!DOCTYPE svg
PUBLIC "-//W3C//DTD SVG 1.1//EN"
       "http://www.w3.org/Graphics/SVG/1.1/DTD/svg11.dtd">
<svg version="1.1" xmlns="http://www.w3.org/2000/svg" xmlns:xlink="http://www.w3.org/1999/xlink" width="18.6706" height="22.8055">
 <g>
  <rect height="22.8055" opacity="0" width="18.6706" x="0" y="0"/>
  <path d="M9.25537 1.24571C11.4192 1.24571 13.3568 2.03262 14.8271 3.40479C15.1313 3.67832 15.4836 3.74805 15.7474 3.521C16.0307 3.27139 16.0307 2.8584 15.7167 2.56836C14.0194 0.962402 11.7393 0.0232422 9.25537 0.0232422C6.77149 0.0232422 4.49805 0.962402 2.79404 2.56836C2.48379 2.8584 2.48379 3.27139 2.76035 3.521C3.03389 3.74805 3.38623 3.67832 3.68369 3.40479C5.15762 2.03262 7.09824 1.24571 9.25537 1.24571ZM9.29307 5.09815C10.3783 5.09815 11.3952 5.42442 12.1239 6.10117C12.4349 6.33731 12.7805 6.4377 13.0473 6.20088C13.3306 5.9543 13.3373 5.50762 13.0031 5.23779C11.9999 4.37305 10.6983 3.87568 9.29307 3.87568C7.88779 3.87568 6.58623 4.37305 5.58301 5.23779C5.24883 5.50762 5.25557 5.9543 5.53887 6.20088C5.80567 6.4377 6.13848 6.33428 6.46221 6.10117C7.24746 5.47119 8.20781 5.09815 9.29307 5.09815ZM9.33682 20.6441C11.2957 20.6441 13.8062 20.5728 15.5781 20.4653L15.5781 21.7787C15.5781 22.3525 16.0311 22.8055 16.6086 22.8055L17.6334 22.8055C18.214 22.8055 18.6706 22.3525 18.6706 21.7787L18.6706 17.2931C18.6706 15.9121 18.373 15.1867 17.6792 14.2963L16.9872 13.4157C16.7033 11.9734 16.173 10.4635 15.8995 9.87754C15.4631 8.97842 14.6519 8.47998 13.6601 8.35908C13.1267 8.2877 11.3012 8.24492 9.33682 8.24492C7.37246 8.24492 5.54697 8.2877 5.01055 8.35908C4.02178 8.47998 3.20078 8.97842 2.77412 9.87754C2.50068 10.4635 1.97031 11.9734 1.6834 13.4157L0.991406 14.2963C0.300683 15.1867 0 15.9121 0 17.2931L0 21.7787C0 22.3525 0.456641 22.8055 1.03721 22.8055L2.06201 22.8055C2.64258 22.8055 3.09248 22.3525 3.09248 21.7787L3.09248 20.4653C4.86748 20.5728 7.37793 20.6441 9.33682 20.6441ZM3.18447 12.785C3.39424 11.8062 3.77276 10.7272 4.0334 10.2742C4.26338 9.8752 4.54619 9.66143 5.05459 9.59307C5.67217 9.51192 7.05986 9.46914 9.33682 9.46914C11.6107 9.46914 12.9984 9.49844 13.619 9.59307C14.1274 9.66143 14.4005 9.8752 14.6402 10.2742C14.9046 10.7204 15.2562 11.8062 15.4861 12.785C15.5491 13.0416 15.4494 13.18 15.1527 13.1567C13.7853 13.0628 12.2426 12.9907 9.33682 12.9907C6.42803 12.9907 4.88838 13.0628 3.5209 13.1567C3.22119 13.18 3.12822 13.0416 3.18447 12.785ZM3.5751 18.4745C2.90391 18.4745 2.38897 17.9565 2.38897 17.2854C2.38897 16.6074 2.90391 16.106 3.5751 16.106C4.25303 16.106 4.75449 16.6074 4.75449 17.2854C4.75449 17.9565 4.25303 18.4745 3.5751 18.4745ZM7.28799 18.2279C6.78047 18.2279 6.43594 17.8834 6.43594 17.385C6.43594 16.8774 6.78047 16.5397 7.28799 16.5397L11.3856 16.5397C11.8901 16.5397 12.2347 16.8774 12.2347 17.385C12.2347 17.8834 11.8901 18.2279 11.3856 18.2279ZM15.0955 18.4745C14.4176 18.4745 13.9161 17.9565 13.9161 17.2854C13.9161 16.6074 14.4176 16.106 15.0955 16.106C15.7697 16.106 16.2749 16.6074 16.2749 17.2854C16.2749 17.9565 15.7697 18.4745 15.0955 18.4745Z" fill="#ffffff" fill-opacity="0.85"/>
 </g>
</svg>
