<?xml version="1.0" encoding="utf-8"?>
<!-- Generator: Adobe Illustrator 27.0.1, SVG Export Plug-In . SVG Version: 6.00 Build 0)  -->
<svg version="1.1" id="Layer_1" xmlns="http://www.w3.org/2000/svg" xmlns:xlink="http://www.w3.org/1999/xlink" x="0px" y="0px"
	 viewBox="0 0 770.9 166.7" enable-background="new 0 0 770.9 166.7" xml:space="preserve">
<g>
	<path fill="#231F20" d="M437.1,141.5c28-4.6,49-9,88.7-18.5c1.4-0.3,1.4-0.7-0.2-0.8c-17.5-1-32.4-2.1-42.8-3
		c-2.5-0.2-2.7-1-1.6-2.5c2.8-3.5,5.8-4.2,13.3-4.2c6.9,0,24.2,0.2,41.7,0.3c34.7,0.2,68.8-8.6,111.4-22.7c0.5-0.2,0.3-0.5-0.2-0.5
		c-59.6,1.4-131.9,2.1-143.6,2.1c-1.8,0-1.6-1.2-0.3-2.6c2.7-3.2,5.7-4.8,15.5-5.5c13.8-1,131.4-6.7,150.7-7.4
		c22.8-0.9,36.8-4.4,55.5-18.7c5.5-4,12.7-10.2,19.3-16.7c1-1,1-1.8-0.9-1.6C707.9,42.4,526,59.3,517.5,60.4
		c-15.5,2-22.7,6.1-28.5,15.3c-19.3,30-27.8,44.6-52.9,64.5C435.1,141,435.1,141.9,437.1,141.5 M385.4,148.4c-0.3,0-0.9,0-1.8-0.5
		C348.9,127.1,313.3,95,306,57.6c-2.5-14.1,2.8-16.7,11.7-19.9c15.9-5.8,52.5-17.1,67.7-17.1s51.8,11.3,67.7,17.1
		c8.8,3.2,14.2,5.8,11.7,19.9C457.6,95,422,127,387.2,147.8C386.3,148.4,385.8,148.4,385.4,148.4 M333.8,141.5c2,0.3,2-0.5,0.9-1.4
		c-25.1-19.9-33.6-34.5-52.9-64.5c-5.8-9.1-12.9-13.4-28.5-15.3c-8.5-1-190.4-18-226.1-21.2c-2-0.2-2,0.5-0.9,1.6
		c6.5,6.5,13.8,12.7,19.3,16.7C64.3,71.7,78.2,75.2,101,76c19.3,0.7,136.9,6.3,150.7,7.4c9.9,0.7,12.9,2.3,15.5,5.5
		c1.2,1.4,1.4,2.6-0.3,2.6c-11.7,0-84-0.7-143.6-2.1c-0.5,0-0.7,0.3-0.2,0.5c42.6,14.1,76.7,22.9,111.4,22.7
		c17.5-0.2,34.8-0.3,41.7-0.3c7.4,0,10.4,0.7,13.3,4.2c1,1.4,0.9,2.3-1.6,2.5c-10.5,0.9-25.3,2-42.8,3c-1.6,0.2-1.6,0.5-0.2,0.8
		C284.8,132.5,305.8,137,333.8,141.5 M385.4,159.5c0.5,0,1.4-0.2,2.1-0.5c42.8-21.4,62.8-40.9,87.9-81.4
		c9.4-15.5,14.7-23.4,37.5-26.8c35.7-5.1,197-16.4,228.8-20.8c13.7-2,17.3-4,23.7-10.8c1-1,1-2-0.9-1.8c-4,0.3-165,7.3-261.5,10.8
		c-23.7,1.2-30.8,0.7-50.6-5.8c-29.3-9.1-55.8-15.2-67-15.2s-37.7,6.1-67,15.1c-19.8,6.5-26.9,7.1-50.5,5.8
		C171.4,24.6,10.4,17.8,6.3,17.4c-2-0.2-2,0.7-0.9,1.8C11.7,25.9,15.5,28,29.1,30C60.9,34.3,222.2,45.6,258,50.7
		c22.8,3.3,28.1,11.3,37.5,26.8c25.1,40.6,45.1,60.1,87.9,81.4C384,159.3,384.9,159.5,385.4,159.5"/>
	<path fill="#231F20" d="M442.1,61.2c-2.5-1.3-5.1-2-5.1-4.3c0-1.1,1-2,3.2-2s4.2,0.8,6,1.6l0.6-3c-1.7-0.6-3.9-1-6.2-1
		c-5.2,0-8,2.3-8,5.5c0,3.1,2.2,4.8,5.4,6.2c2.7,1.2,5,2.1,5,4c0,1.5-1.2,2.5-3.5,2.5c-2.2,0-4.4-0.8-6.2-1.6l-0.5,3.5
		c0.8,0.3,4.2,0.9,6.7,0.9c4.2,0,7.9-2,7.9-5.7C447.3,64.1,444.7,62.6,442.1,61.2 M359.5,55.4l-0.7-2.5h-14.3L344,54l0.9,0.5
		c0.6,0.3,0.7,0.7,0.7,1.4V73h13.8v-2.6H350v-6.5h8.1v-2.5H350v-5.9L359.5,55.4L359.5,55.4z M413.3,61.2c-2.5-1.3-5.1-2-5.1-4.3
		c0-1.1,1-2,3.2-2s4.2,0.8,6,1.6l0.6-3c-1.7-0.6-3.9-1-6.2-1c-5.2,0-7.8,2.3-7.8,5.5c0,3.1,2.1,4.8,5.2,6.2c2.7,1.2,5,2.1,5,4
		c0,1.5-1.2,2.5-3.5,2.5c-2.2,0-4.4-0.8-6.2-1.6l-0.5,3.5c0.8,0.3,4.2,0.9,6.7,0.9c4.2,0,7.9-2,7.9-5.7
		C418.5,64.1,415.9,62.6,413.3,61.2 M421.6,54l0.9,0.5c0.6,0.3,0.8,0.7,0.8,1.4V73h4.4V52.9h-5.6L421.6,54z M400.7,55.4l-0.7-2.5
		h-14.3l-0.5,1.2l0.9,0.5c0.6,0.3,0.7,0.7,0.7,1.4v17h13.8v-2.6h-9.4v-6.5h8.1v-2.5h-8.1v-5.9L400.7,55.4L400.7,55.4z M378.1,66.4
		l-10.8-13.6h-0.7H363l-0.5,1.2l0.9,0.5c0.7,0.3,0.8,0.7,0.8,1.3v17.1h3.2v-13l10.3,13h3.5v-20H378v13.5H378.1z M333.8,63.4l2,0.8
		c0.6,0.3,0.8,0.5,0.8,1.2v4.5c-0.8,0.5-2,0.9-3.2,0.8c-3.9-0.2-6.7-3.3-6.7-7.8c0-4.6,2.5-8,6.9-8c1,0,3.5,0.3,5.9,2.3l0.9-3.3
		c-2.9-1.2-4.7-1.6-6.9-1.6C327.3,52.2,322,55.7,322,63c0,6.6,4.6,10.3,10.7,10.3c4.5,0,7.2-1.5,7.8-2v-9.1h-6.3L333.8,63.4z"/>
</g>
</svg>
