<?xml version="1.0" encoding="UTF-8"?>
<!--Generator: Apple Native CoreSVG 175.5-->
<!DOCTYPE svg
PUBLIC "-//W3C//DTD SVG 1.1//EN"
       "http://www.w3.org/Graphics/SVG/1.1/DTD/svg11.dtd">
<svg version="1.1" xmlns="http://www.w3.org/2000/svg" xmlns:xlink="http://www.w3.org/1999/xlink" width="18.8344" height="21.4299">
 <g>
  <rect height="21.4299" opacity="0" width="18.8344" x="0" y="0"/>
  <path d="M13.8856 20.8276L13.8856 2.45928C13.8856 0.878906 13.0157 0 11.436 0L3.82832 0C2.2291 0 1.3916 0.869824 1.3916 2.45928L1.3916 20.8276ZM3.96895 10.0833C3.28936 10.0833 2.85967 9.68359 2.85967 9.03535L2.85967 2.53555C2.85967 1.88731 3.28936 1.48086 3.96895 1.48086L11.2954 1.48086C11.978 1.48086 12.4175 1.88731 12.4175 2.53555L12.4175 9.03535C12.4175 9.68359 11.978 10.0833 11.2954 10.0833ZM0 20.8077C0 21.1442 0.263087 21.4238 0.589845 21.4238L14.6647 21.4238C14.9915 21.4238 15.2711 21.1442 15.2711 20.8077C15.2711 20.4877 14.9915 20.2179 14.6647 20.2179L0.589845 20.2179C0.269825 20.2179 0 20.481 0 20.8077ZM13.3031 12.6161L13.9802 12.6161C14.5051 12.6161 14.8428 12.9366 14.8428 13.4945L14.8428 16.8329C14.8428 18.0683 15.61 18.8324 16.8483 18.8324C18.0739 18.8324 18.8344 18.0683 18.8344 16.8329L18.8344 5.04258C18.8344 4.5747 18.7145 4.21933 18.4706 3.83369L17.1236 1.66269C16.7225 1.0291 15.8147 1.59365 16.2128 2.22793L17.4008 4.14697C17.49 4.29248 17.4803 4.4582 17.3843 4.60068L16.1413 6.35752C15.7971 6.83682 15.8314 7.29287 16.1922 7.71963L17.7541 9.55733L17.7541 16.8329C17.7541 17.3996 17.4053 17.7552 16.8483 17.7552C16.2719 17.7552 15.9231 17.3996 15.9231 16.8329L15.9231 13.4945C15.9231 12.268 15.1737 11.5389 13.9802 11.5389L13.3031 11.5389Z" fill="#ffffff" fill-opacity="0.85"/>
 </g>
</svg>
