<?xml version="1.0" encoding="UTF-8"?>
<!--Generator: Apple Native CoreSVG 175.5-->
<!DOCTYPE svg
PUBLIC "-//W3C//DTD SVG 1.1//EN"
       "http://www.w3.org/Graphics/SVG/1.1/DTD/svg11.dtd">
<svg version="1.1" xmlns="http://www.w3.org/2000/svg" xmlns:xlink="http://www.w3.org/1999/xlink" width="20.5306" height="24.982">
 <g>
  <rect height="24.982" opacity="0" width="20.5306" x="0" y="0"/>
  <path d="M14.2565 10.8826C14.5189 11.0618 14.8689 11.0018 15.0721 10.7185C15.8173 9.73455 16.2968 8.3158 16.2968 6.77322C16.2968 5.23367 15.8173 3.82166 15.0721 2.83767C14.8689 2.54763 14.5189 2.49441 14.2565 2.67732C13.9628 2.89021 13.9096 3.25672 14.1427 3.56629C14.7945 4.45349 15.1282 5.53445 15.1282 6.77322C15.1282 8.01199 14.7878 9.08621 14.1427 9.98015C13.9163 10.2995 13.9628 10.666 14.2565 10.8826ZM17.6889 13.4398C17.9685 13.6295 18.3117 13.5695 18.5081 13.2795C19.7611 11.6001 20.5306 9.20955 20.5306 6.77322C20.5306 4.33992 19.7679 1.93592 18.5081 0.26697C18.3117-0.0163312 17.9685-0.0830306 17.6889 0.109646C17.4063 0.299294 17.3628 0.649295 17.5855 0.958866C18.7195 2.53006 19.362 4.5993 19.362 6.77322C19.362 8.95388 18.7061 11.0164 17.5855 12.5876C17.3695 12.9002 17.4063 13.2502 17.6889 13.4398ZM6.10703 0.670875C2.70615 0.670875 0 3.37703 0 6.7614C0 9.32947 1.54736 11.5978 3.96152 12.4923L3.96152 22.0795C3.96152 22.2903 4.03057 22.4728 4.19727 22.6463L5.79482 24.2506C5.95479 24.4105 6.23233 24.4472 6.41924 24.2603L9.46953 21.21C9.64434 21.0255 9.6376 20.7877 9.46953 20.6098L7.52149 18.685L10.1794 16.0399C10.3347 15.8749 10.3347 15.631 10.1568 15.4465L7.50401 12.7771C10.5246 11.6062 12.2073 9.40994 12.2073 6.7614C12.2073 3.39353 9.48467 0.670875 6.10703 0.670875ZM6.10703 6.22097C5.23516 6.22097 4.54277 5.52185 4.54277 4.65672C4.54277 3.78484 5.22842 3.09246 6.10703 3.09246C6.96914 3.09246 7.67129 3.78484 7.67129 4.65672C7.67129 5.52185 6.96914 6.22097 6.10703 6.22097Z" fill="#ffffff" fill-opacity="0.85"/>
 </g>
</svg>
