<?xml version="1.0" encoding="UTF-8"?>
<!--Generator: Apple Native CoreSVG 175.5-->
<!DOCTYPE svg
PUBLIC "-//W3C//DTD SVG 1.1//EN"
       "http://www.w3.org/Graphics/SVG/1.1/DTD/svg11.dtd">
<svg version="1.1" xmlns="http://www.w3.org/2000/svg" xmlns:xlink="http://www.w3.org/1999/xlink" width="20.7048" height="20.2023">
 <g>
  <rect height="20.2023" opacity="0" width="20.7048" x="0" y="0"/>
  <path d="M9.79443 19.8907C11.95 19.8907 13.9591 19.169 15.5829 17.9644L15.5829 16.6634C15.5829 16.5435 15.5829 16.4266 15.5829 16.3067C14.8609 16.9914 13.9941 17.5649 13.0351 17.9717C12.5864 18.1772 12.2668 17.9118 12.254 17.4743C12.1446 15.7785 12.8326 14.1982 13.9806 13.0799C13.7931 12.6513 13.6944 12.188 13.6944 11.6901C13.6944 9.45025 15.5063 7.63541 17.7687 7.63541C18.3427 7.63541 18.8753 7.77408 19.3423 8.03394C18.3932 3.64693 14.4388 0.301816 9.7877 0.301816C4.42022 0.301816 0 4.72877 0 10.0963C0 15.457 4.42695 19.8907 9.79443 19.8907ZM2.43204 5.91441C3.82217 3.33668 6.59971 1.56539 9.78096 1.56539C12.9585 1.56539 15.733 3.33668 17.1329 5.90767C17.4236 6.35836 17.2684 6.83199 16.7557 6.83199L2.80626 6.83199C2.3003 6.83199 2.13829 6.35836 2.43204 5.91441ZM9.77793 12.8615C8.61006 12.8615 7.66748 11.9219 7.66748 10.7413C7.66748 9.57711 8.61006 8.64059 9.77793 8.64059C10.9519 8.64059 11.8944 9.57711 11.8944 10.7413C11.8944 11.9219 10.9519 12.8615 9.77793 12.8615ZM1.52256 12.1983C1.39287 11.7109 1.64385 11.4617 2.08506 11.5058C5.13233 11.7191 7.52734 14.4064 7.31465 17.4743C7.3086 17.9118 6.98525 18.1772 6.54033 17.9717C4.04424 16.9426 2.18223 14.8095 1.52256 12.1983ZM17.7687 8.76676C16.1297 8.76676 14.8325 10.0737 14.8325 11.6901C14.8325 12.9536 15.5717 14.0217 16.721 14.4588L16.721 19.0803C16.721 19.1861 16.7638 19.2733 16.8456 19.3619L17.6208 20.131C17.7087 20.2226 17.8151 20.2294 17.9037 20.131L19.3851 18.6625C19.4706 18.5769 19.4706 18.4705 19.3851 18.3849L18.4398 17.4397L19.7373 16.1746C19.8003 16.0958 19.7973 15.9833 19.7141 15.888L18.4308 14.6046C19.8845 14.0315 20.7048 12.9859 20.7048 11.6901C20.7048 10.0865 19.3881 8.76676 17.7687 8.76676ZM17.7619 9.99039C18.2606 9.99039 18.6648 10.4043 18.6648 10.8993C18.6648 11.4017 18.2606 11.8088 17.7619 11.8088C17.2602 11.8088 16.8561 11.4017 16.8561 10.8993C16.8561 10.4043 17.2504 9.99039 17.7619 9.99039Z" fill="#ffffff" fill-opacity="0.85"/>
 </g>
</svg>
