<?xml version="1.0" encoding="utf-8"?>
<!-- Generator: Adobe Illustrator 27.0.1, SVG Export Plug-In . SVG Version: 6.00 Build 0)  -->
<svg version="1.1" id="Layer_1" xmlns="http://www.w3.org/2000/svg" xmlns:xlink="http://www.w3.org/1999/xlink" x="0px" y="0px"
	 viewBox="0 0 331.8 70.4" enable-background="new 0 0 331.8 70.4" xml:space="preserve">
<g>
	<path fill="#231F20" d="M8.3,35.2c0-15.2,11.1-27,26.4-27c10.4,0,18.2,4.9,22.7,12.6l-5.3,3.9c-3.5-6-9.3-9.8-17.4-9.8
		c-11.7,0-19.2,8.8-19.2,20.3s7.8,20.3,19.8,20.3c6.7,0,12.6-2.6,15.9-6.1V39.2H40.8v-6.4h17.5v19.7c-5.7,5.7-13.6,9.7-23,9.7
		C19.7,62.3,8.3,50.4,8.3,35.2"/>
	<polygon fill="#231F20" points="73.4,9.2 100.6,9.2 100.6,15.4 80.4,15.4 80.4,31.8 99,31.8 99,38.1 80.4,38.1 80.4,54.9 
		100.6,54.9 100.6,61.2 73.4,61.2 	"/>
	<polygon fill="#231F20" points="123.1,24.2 123.1,61.3 116,61.3 116,9.2 117.8,9.2 153.5,46.3 153.5,9.2 160.6,9.2 160.6,62.3 
		158.8,62.3 	"/>
	<polygon fill="#231F20" points="178.4,9.2 205.6,9.2 205.6,15.4 185.4,15.4 185.4,31.8 204.1,31.8 204.1,38.1 185.4,38.1 
		185.4,54.9 205.6,54.9 205.6,61.2 178.4,61.2 	"/>
	<path fill="#231F20" d="M216.6,48.9l5.6-3.2c2.2,5.7,6.5,9.9,13.5,9.9c6.5,0,10.4-3.8,10.4-8.9c0-4.2-2.5-7-8.6-8.6l-5.3-1.4
		c-7.4-1.9-12.5-6.7-12.5-13.7c0-8.4,6.4-14.8,16.4-14.8c8.2,0,14.1,4.7,16.5,10.1l-5.3,3.5c-2.5-4.3-6.3-6.9-11.3-6.9
		c-5.6,0-9.1,3.1-9.1,7.6c0,3.6,2.5,6.1,6.9,7.3l5.2,1.4c9,2.4,14.4,7.1,14.4,15.2c0,9.1-7.3,15.8-17.7,15.8
		C224.8,62.3,219.1,55.5,216.6,48.9"/>
	<rect x="267.1" y="9.2" fill="#231F20" width="7.1" height="52.2"/>
	<path fill="#231F20" d="M286.8,48.9l5.6-3.2c2.2,5.7,6.5,9.9,13.5,9.9c6.5,0,10.4-3.8,10.4-8.9c0-4.2-2.5-7-8.6-8.6l-5.3-1.4
		C295,34.8,289.9,30,289.9,23c0-8.4,6.4-14.8,16.4-14.8c8.2,0,14.1,4.7,16.5,10.1l-5.3,3.5c-2.5-4.3-6.3-6.9-11.3-6.9
		c-5.6,0-9.1,3.1-9.1,7.6c0,3.6,2.5,6.1,6.9,7.3l5.2,1.4c9,2.4,14.4,7.1,14.4,15.2c0,9.1-7.3,15.8-17.7,15.8
		C295,62.3,289.3,55.5,286.8,48.9"/>
</g>
</svg>
